<?xml version="1.0" standalone="no"?>
<!DOCTYPE svg PUBLIC "-//W3C//DTD SVG 20010904//EN"
 "http://www.w3.org/TR/2001/REC-SVG-20010904/DTD/svg10.dtd">
<svg version="1.0" xmlns="http://www.w3.org/2000/svg"
 width="260.000000pt" height="260.000000pt" viewBox="0 0 260.000000 260.000000"
 preserveAspectRatio="xMidYMid meet">
<metadata>
Created by potrace 1.14, written by Peter Selinger 2001-2017
</metadata>
<g transform="translate(0.000000,260.000000) scale(0.100000,-0.100000)"
fill="#000000" stroke="none">
<path d="M1115 2263 c-218 -45 -392 -156 -506 -324 -117 -173 -158 -389 -115
-599 19 -89 89 -235 150 -312 95 -119 241 -214 397 -258 94 -26 285 -29 374
-6 242 63 418 207 520 429 47 101 64 183 65 303 2 174 -37 307 -129 443 -50
73 -163 180 -238 223 -55 33 -172 82 -224 94 -29 7 -266 13 -294 7z"/>
<path d="M1777 649 c-38 -20 -79 -75 -105 -142 -13 -33 -19 -37 -41 -33 -14 3
-39 8 -55 10 -16 3 -30 7 -32 9 -10 10 29 108 48 121 l21 15 -27 11 c-38 14
-81 9 -108 -13 -22 -18 -22 -18 -1 -8 27 14 90 14 98 1 3 -5 1 -10 -5 -10 -11
0 -53 -85 -53 -107 0 -7 -14 -14 -31 -14 l-31 -2 28 -4 c16 -3 27 -7 24 -11
-2 -4 -9 -22 -16 -40 -13 -33 -55 -62 -89 -62 -50 0 -53 68 -4 94 15 9 22 15
15 16 -21 0 -73 -51 -73 -74 0 -79 128 -52 175 37 21 40 15 39 105 21 28 -5
29 -7 23 -50 -5 -35 -3 -45 12 -50 11 -4 24 1 36 15 10 11 14 16 7 11 -20 -17
-28 -11 -28 20 0 17 7 33 18 39 9 6 12 11 6 11 -27 0 25 136 65 168 8 6 27 12
42 12 15 0 30 -6 32 -12 4 -8 6 -7 6 3 2 32 -22 38 -62 18z"/>
<path d="M271 633 c-19 -10 -37 -24 -39 -32 -3 -7 5 -4 17 8 24 24 81 28 144
10 36 -10 44 -18 30 -33 -4 -3 -8 -14 -9 -24 -2 -9 -12 -51 -23 -92 -26 -95
-27 -118 -5 -99 8 7 24 29 34 48 18 35 129 165 136 159 1 -2 -6 -30 -17 -63
-36 -108 -9 -191 43 -135 14 15 16 18 4 10 -16 -12 -20 -12 -31 3 -24 33 0
133 50 207 38 56 33 56 -40 -4 -49 -39 -127 -127 -152 -170 -7 -11 -12 -16
-13 -11 0 19 38 141 54 173 18 35 19 34 -39 47 -72 16 -111 16 -144 -2z"/>
<path d="M390 545 c-7 -9 -8 -15 -2 -15 5 0 12 7 16 15 3 8 4 15 2 15 -2 0 -9
-7 -16 -15z"/>
<path d="M1217 507 l-19 -32 31 29 c35 33 36 36 19 36 -7 0 -21 -15 -31 -33z"/>
<path d="M1926 514 c-5 -14 -4 -15 9 -4 17 14 19 20 6 20 -5 0 -12 -7 -15 -16z"/>
<path d="M333 473 c-70 -84 -180 -121 -224 -76 -24 23 -28 81 -8 94 9 6 10 9
2 9 -17 0 -43 -40 -43 -68 0 -12 11 -34 25 -48 56 -56 181 -11 265 96 44 56
32 50 -17 -7z"/>
<path d="M701 464 c9 -11 8 -19 -3 -37 -16 -23 -8 -67 11 -67 16 0 22 18 9 23
-10 3 -9 13 5 41 21 46 22 43 -8 48 -20 4 -23 3 -14 -8z"/>
<path d="M969 464 c-10 -12 -9 -13 5 -8 14 6 16 2 10 -22 -4 -16 -11 -37 -16
-47 -9 -17 -4 -37 6 -26 13 15 54 99 46 94 -5 -3 -10 -2 -10 3 0 17 -28 21
-41 6z"/>
<path d="M1283 469 c-27 -10 -28 -20 -8 -58 8 -16 11 -31 8 -35 -4 -3 -1 -6 6
-6 20 0 23 27 5 55 -15 22 -15 28 -3 35 8 6 16 4 21 -3 6 -9 8 -9 8 0 0 18
-12 22 -37 12z"/>
<path d="M2056 453 c-14 -14 -27 -32 -27 -39 -4 -44 -3 -49 16 -52 11 -1 29 4
40 13 20 16 20 16 -1 6 -26 -13 -34 -6 -34 29 0 36 24 57 45 40 12 -10 15 -10
15 3 0 26 -28 27 -54 0z"/>
<path d="M2184 468 c-3 -5 -2 -8 3 -7 30 5 35 -2 19 -26 -9 -14 -14 -31 -10
-38 4 -7 4 -9 -1 -5 -4 4 -14 3 -21 -3 -30 -24 -39 24 -11 59 7 9 6 11 -5 7
-21 -8 -40 -53 -33 -76 8 -23 23 -24 47 -3 16 16 18 16 24 0 7 -19 30 -21 40
-4 4 7 3 8 -4 4 -17 -10 -15 29 3 63 14 28 14 29 -16 33 -16 3 -32 1 -35 -4z"/>
<path d="M2327 462 c-11 -10 -17 -12 -17 -4 0 7 -10 12 -22 12 -16 0 -19 -3
-11 -11 7 -7 7 -23 -3 -55 -17 -58 1 -58 26 1 14 32 25 45 40 45 11 0 20 4 20
9 0 18 -17 20 -33 3z"/>
<path d="M2399 473 c-21 -5 -52 -63 -48 -88 3 -12 14 -21 29 -24 24 -3 24 -3
7 17 -27 30 -6 95 25 76 7 -5 5 -11 -7 -21 -11 -7 -14 -13 -9 -13 6 0 19 6 30
14 17 13 17 16 4 29 -8 7 -22 12 -31 10z"/>
<path d="M839 461 c12 -8 12 -13 -1 -33 -10 -16 -13 -30 -7 -46 9 -23 24 -29
34 -12 3 6 2 10 -3 10 -11 0 -3 58 9 66 18 11 8 24 -18 24 -21 0 -24 -3 -14
-9z"/>
<path d="M904 458 c-4 -7 -3 -8 4 -4 16 9 15 -3 -3 -53 -17 -48 -3 -55 21 -10
26 51 28 79 5 79 -11 0 -23 -5 -27 -12z"/>
<path d="M1047 459 c7 -7 6 -21 -2 -47 -7 -20 -11 -40 -8 -44 10 -17 21 -6 26
25 4 17 9 42 13 55 5 18 2 22 -17 22 -16 0 -20 -3 -12 -11z"/>
<path d="M1148 464 c19 -9 14 -34 -8 -34 -14 0 -18 5 -13 18 4 13 2 13 -10 -3
-41 -56 -11 -110 39 -69 18 15 18 15 -3 5 -18 -9 -23 -8 -28 10 -8 24 -9 22
30 35 37 12 40 38 5 41 -14 1 -19 0 -12 -3z"/>
<path d="M1753 448 c-42 -47 -30 -103 16 -78 27 14 27 20 1 13 -16 -4 -20 0
-20 19 0 13 9 34 20 46 12 12 17 22 12 22 -5 0 -18 -10 -29 -22z"/>
<path d="M1815 460 c4 -6 0 -21 -8 -33 -9 -15 -12 -30 -6 -45 10 -26 22 -28
40 -5 8 10 9 14 2 10 -6 -4 -14 -3 -17 2 -7 11 13 62 29 73 5 4 -3 8 -18 8
-17 0 -26 -4 -22 -10z"/>
<path d="M1884 454 c-10 -8 -13 -12 -5 -8 11 6 13 3 7 -12 -17 -45 -19 -74 -3
-74 8 0 21 8 28 18 13 15 12 16 -3 3 -22 -16 -22 -6 -3 48 15 44 10 50 -21 25z"/>
<path d="M1954 442 c0 -15 -3 -39 -7 -54 -4 -16 -3 -28 2 -28 11 0 36 69 33
90 -2 9 0 11 5 5 12 -15 41 -15 47 0 3 10 -7 13 -37 13 -39 0 -42 -2 -43 -26z"/>
<path d="M642 447 c-23 -27 -32 -65 -18 -76 14 -12 46 -5 46 10 0 4 -7 6 -15
3 -18 -7 -19 4 -5 42 12 30 8 41 -8 21z"/>
<path d="M771 429 c-15 -24 -17 -37 -10 -51 12 -22 19 -22 45 -3 18 13 18 14
-4 8 -20 -5 -23 -2 -20 18 2 13 7 30 12 37 4 7 6 16 3 19 -3 3 -15 -10 -26
-28z"/>
<path d="M1235 390 c-9 -15 4 -30 23 -29 15 1 14 2 -1 6 -11 3 -16 11 -13 19
6 16 0 19 -9 4z"/>
</g>
</svg>
